# xmcd
#
# Track frame offsets:
#	150
#	21765
#	43291
#	65142
#	83695
#	100270
#	116402
#	132901
#	146929
#	170037
#	223897
#	242143
#
# Disc length: 3290 seconds
#
# Revision: 1
# Processed by: cddbd v1.5.2PL0 Copyright (c) Steve Scherf et al.
# Submitted via: EZCDAudioConverter 2.5.0.1
#
DISCID=b90cd80c
DTITLE=The Muggs - Straight Up Boogaloo 
DYEAR=2015
DGENRE=Blues Rock
TTITLE0=Applecart Blues
TTITLE1=Fat City
TTITLE2=Lightning Cries
TTITLE3=Spit And Gristle
TTITLE4=Roger Over And Out A
TTITLE5=Roger Over And Out B
TTITLE6=Blues For Mephistopheles
TTITLE7=Tomorrows' Dream
TTITLE8=Straight Up Boogaloo
TTITLE9=Rattlesnake Shake
TTITLE10=Yer Blues
TTITLE11=Theotis Toddlinski Outtakes
EXTD=
EXTT0=
EXTT1=
EXTT2=
EXTT3=
EXTT4=
EXTT5=
EXTT6=
EXTT7=
EXTT8=
EXTT9=
EXTT10=
EXTT11=
PLAYORDER=
